<svg xmlns="http://www.w3.org/2000/svg" viewBox="0 0 512 512" width="512px" height="512px"><defs><clipPath id="icon-bg"><path d="M0 0h512v512H0z" fill="#000000" fill-opacity="0.03" transform="translate(-25.6, -25.6) scale(1.1, 1.1) rotate(0, 256, 256) skewX(0) skewY(0)"></path></clipPath></defs><path d="M0 0h512v512H0z" fill="#000000" fill-opacity="0.03"></path><g class="" style="" transform="translate(1,-14)"><path d="M162.22 21.312c-183.876 106.68 51.994 227.35-10.19 332.47C116.95 413.083 38.11 325.45 43.75 227-6.035 353.376 30.21 443.745 95.22 492.75c1.386.34 17.577.498 41.186.562-28.478-16.9-32.06-75.355 32.813-103.25l15.78-7L182.062 400c-1.356 8.34-.318 13.95 1.188 16.937 1.507 2.987 3.106 3.544 5.844 4.094 5.475 1.1 16.963-2.395 26.28-14.624 18.636-24.457 29.117-80.228-26.874-167l-4.094-6.437-13.906-19.25 23.25 9.905 5.25 1.75c80.85 25.498 135.3 58.46 174.625 112.72 21.544-22.906 38.7-56.835 43.812-91.69l3.5-27.468 13.438 23.97c25.525 45.802 30.267 104.912 11.094 156.5-14.23 38.28-42.036 72.34-84 93.5 13.623-.01 24.05.032 25.25.124 154.76-34.77 139.345-244.952-14.19-394.093.012.726 0 1.46 0 2.188 78.964 185.87-136.465 189.104-119.25 11.47-41.686 100.463-132.86-2.147-91.06-91.283zM269.093 332.25c13.51 15.806 22.35 33.086 22.78 50.812.587 24.03-9.293 47.12-24.53 66.563-14.832 18.926-34.837 34.62-56.625 43.656 33.127-.065 64.926-.16 95.217-.25l-.062-.186c30.95-18.584 47.31-38.83 53.75-57.813 6.44-18.982 3.25-37.246-5.844-53.718-15.44-27.97-49.705-47.71-84.686-49.062z" fill="#ffffff" fill-opacity="1" clip-path="url(#icon-bg)" transform="translate(25.6, 25.6) scale(0.9, 0.9) rotate(0, 256, 256) skewX(0) skewY(0)"></path></g><g class="" style="" transform="translate(256,256)"><g><circle cx="128" cy="128" r="128" fill="#000" fill-opacity="1"></circle><circle stroke="#fff" stroke-opacity="1" fill="#000" fill-opacity="1" stroke-width="18" cx="128" cy="128" r="101"></circle><path fill="#fff" fill-opacity="1" d="M86.11 188.2v-23.3q7.78 3.6 14.89 5.5 7.1 1.7 14.1 1.7 14.5 0 22.6-8 8.2-8.1 9.6-24-5.8 4.2-12.3 6.3-6.5 2.1-14.1 2.1-19.4 0-31.32-11.2-11.85-11.4-11.85-29.8 0-20.42 13.2-32.69 13.27-12.28 35.57-12.28 24.7 0 38.2 16.68 13.6 16.67 13.6 47.09 0 31.4-15.9 49.3-15.8 17.9-43.4 17.9-8.9 0-17-1.4-8.11-1.3-15.89-3.9zm40.19-60.8q8.6 0 12.9-5.5 4.3-5.6 4.3-16.7 0-11.01-4.3-16.6-4.3-5.58-12.9-5.58-8.5 0-12.9 5.58-4.3 5.59-4.3 16.6 0 11.1 4.3 16.7 4.4 5.5 12.9 5.5z"></path></g></g></svg>