<svg xmlns="http://www.w3.org/2000/svg" width="512px" height="512px" viewBox="0 0 512 512"><defs><clipPath id="icon-bg"><path d="M0 0h512v512H0z" fill="#000000" fill-opacity="0.03" transform="translate(-25.6, -25.6) scale(1.1, 1.1) rotate(0, 256, 256) skewX(0) skewY(0)"></path></clipPath></defs><path d="M0 0h512v512H0z" fill="#000000" fill-opacity="0.03"></path><g class="" style="" transform="translate(1,-14)"><path d="M162.22 21.312c-183.876 106.68 51.994 227.35-10.19 332.47C116.95 413.083 38.11 325.45 43.75 227-6.035 353.376 30.21 443.745 95.22 492.75c1.386.34 17.577.498 41.186.562-28.478-16.9-32.06-75.355 32.813-103.25l15.78-7L182.062 400c-1.356 8.34-.318 13.95 1.188 16.937 1.507 2.987 3.106 3.544 5.844 4.094 5.475 1.1 16.963-2.395 26.28-14.624 18.636-24.457 29.117-80.228-26.874-167l-4.094-6.437-13.906-19.25 23.25 9.905 5.25 1.75c80.85 25.498 135.3 58.46 174.625 112.72 21.544-22.906 38.7-56.835 43.812-91.69l3.5-27.468 13.438 23.97c25.525 45.802 30.267 104.912 11.094 156.5-14.23 38.28-42.036 72.34-84 93.5 13.623-.01 24.05.032 25.25.124 154.76-34.77 139.345-244.952-14.19-394.093.012.726 0 1.46 0 2.188 78.964 185.87-136.465 189.104-119.25 11.47-41.686 100.463-132.86-2.147-91.06-91.283zM269.093 332.25c13.51 15.806 22.35 33.086 22.78 50.812.587 24.03-9.293 47.12-24.53 66.563-14.832 18.926-34.837 34.62-56.625 43.656 33.127-.065 64.926-.16 95.217-.25l-.062-.186c30.95-18.584 47.31-38.83 53.75-57.813 6.44-18.982 3.25-37.246-5.844-53.718-15.44-27.97-49.705-47.71-84.686-49.062z" fill="#ffffff" fill-opacity="1" clip-path="url(#icon-bg)" transform="translate(25.6, 25.6) scale(0.9, 0.9) rotate(0, 256, 256) skewX(0) skewY(0)"></path></g><g class="" style="" transform="translate(256,256)"><g><circle cx="128" cy="128" r="128" fill="#000" fill-opacity="1"></circle><circle stroke="#fff" stroke-opacity="1" fill="#000" fill-opacity="1" stroke-width="18" cx="128" cy="128" r="101"></circle><path fill="#fff" fill-opacity="1" d="M128.1 134.6q-9.1 0-14 5t-4.9 14.3q0 9.3 4.9 14.3 4.9 4.9 14 4.9t13.9-4.9q4.8-5 4.8-14.3 0-9.4-4.8-14.3-4.8-5-13.9-5zm-23.8-10.8q-11.47-3.5-17.31-10.6-5.84-7.2-5.84-17.99 0-16 11.94-24.38 11.91-8.38 35.01-8.38 23 0 34.9 8.38 11.9 8.3 11.9 24.38 0 10.79-5.9 17.99-5.8 7.1-17.3 10.6 12.8 3.6 19.3 11.6 6.6 8 6.6 20.2 0 18.7-12.5 28.4-12.4 9.6-37 9.6T90.89 184q-12.53-9.7-12.53-28.4 0-12.2 6.52-20.2 6.6-8 19.42-11.6zm7.7-25.29q0 7.49 4.1 11.59 4.2 4.1 12 4.1 7.6 0 11.8-4.1 4.1-4.1 4.1-11.59 0-7.53-4.1-11.51-4.2-4.06-11.8-4.06-7.8 0-12 4.06-4.1 4.06-4.1 11.51z"></path></g></g></svg>