<svg
  xmlns="http://www.w3.org/2000/svg"
  viewBox="0 0 512 512"
  width="512px"
  height="512px">
  <path
     d="m 258.48837,483.0289 c 27.09323,-88.25021 30.7336,-177.1188 31.04073,-269.637 l 0.0637,-3.78828 -0.0642,-5.2e-4 c 0.0529,-22.47343 -0.0601,-45.17746 -0.0796,-68.13111 17.29227,2.07648 34.50031,5.53349 51.48802,10.07984 L 340.93629,122.245 H 270.3507 c -7.55038,-35.937864 -6.49186,-71.868541 0.88132,-107.8059 l -28.82507,-0.0022 c 7.69183,35.932864 10.03229,71.875866 1.10598,107.80706 l -70.81157,7.2e-4 v 29.30581 c 16.93225,-5.515 34.11718,-9.04032 51.39199,-10.84869 0.0267,45.01773 0.31842,88.49468 2.39079,131.27263 0.0108,0.2193 0.005,0.43861 0.0159,0.65791 3.45189,70.60284 11.80759,139.39854 31.98782,210.39706 z m -8.44301,-137.77271 -0.0154,-205.99831 c 4.52686,-0.0412 9.05405,0.0227 13.57795,0.19157 l -5.2e-4,205.82421 z"
     fill="currentColor"
     fill-opacity="1"/>
</svg>
